# xmcd
#
# Track frame offsets: 
#        150
#        16150
#        34900
#        52882
#        70912
#        88795
#        107525
#        122747
#        138232
#        154890
#        170875
#        186620
#        202697
#        222945
#        240170
#        259327
#        279540
#        296405
#
# Disc length: 4263 seconds
#
# Revision: 0
# Processed by: cddbd v1.4PL0 Copyright (c) Steve Scherf et al.
# Submitted via: ExactAudioCopy v0.90a11
#
DISCID=0510a512
DTITLE=Gary Fjellgard - The Best Of Gary Fjellgaard
DYEAR=1900
DGENRE=
TTITLE0=Love To The Wind (with Cindy Church)
TTITLE1=Under Western Skies
TTITLE2=Drifting Cowboy
TTITLE3=Falcon And The Cowboy
TTITLE4=Summer Heat
TTITLE5=Fire And Lace (with Linda Kidder)
TTITLE6=Dance With This Old Cowboy
TTITLE7=Heroes
TTITLE8=Color Of Your Collar
TTITLE9=Cowboys And Indians
TTITLE10=Ten Years Old And Barefoot
TTITLE11=Trains Of Dreams
TTITLE12=Cowboy In Your Heart
TTITLE13=The Moon Is Out To Get Me (with Linda Kidder)
TTITLE14=One More River Run
TTITLE15=Winds Of October
TTITLE16=Islanders
TTITLE17=Somewhere On The Island
EXTD=
EXTT0=
EXTT1=
EXTT2=
EXTT3=
EXTT4=
EXTT5=
EXTT6=
EXTT7=
EXTT8=
EXTT9=
EXTT10=
EXTT11=
EXTT12=
EXTT13=
EXTT14=
EXTT15=
EXTT16=
EXTT17=
PLAYORDER=
